<?xml version="1.0" encoding="UTF-8"?>
<svg width="326px" height="129px" viewBox="0 0 326 129" version="1.1" xmlns="http://www.w3.org/2000/svg" xmlns:xlink="http://www.w3.org/1999/xlink">
    <!-- Generator: Sketch 57.1 (83088) - https://sketch.com -->
    <title>Group</title>
    <desc>Created with Sketch.</desc>
    <g id="Page-1" stroke="none" stroke-width="1" fill="none" fill-rule="evenodd">
        <g id="Group" fill="#000000">
            <path d="M50.5,0 C61.2695526,0 70,8.73044738 70,19.5 C70,27.4610465 65.2293067,34.3078379 58.3908248,37.3374695 C66.3610297,40.4828176 72,48.2540359 72,57.3423063 L72,98.3412701 C72,99.1872583 71.9511386,100.021834 71.8560839,100.84233 L65,100.842 L65,129 L54,129 L54,100.842 L47,100.842 L47,129 L36,129 L36,100.842 L29.1439161,100.84233 C29.0488614,100.021834 29,99.1872583 29,98.3412701 L29,68.967 L-1.30739863e-12,21.053423 L8.08768132,14 L30.1355317,50.4292837 C32.1660109,44.4459684 36.7593727,39.6460325 42.6082064,37.3368869 C35.7702294,34.3071721 31,27.4606595 31,19.5 C31,8.73044738 39.7304474,0 50.5,0 Z" id="Combined-Shape"></path>
            <path d="M90.92,68 L90.92,39.52 L96.96,39.52 C99.3066784,39.52 101.086661,40.1599936 102.3,41.44 C103.513339,42.7200064 104.12,44.5333216 104.12,46.88 L104.12,60.2 C104.12,62.86668 103.47334,64.833327 102.18,66.1 C100.88666,67.366673 99.0266788,68 96.6,68 L90.92,68 Z M95,43.36 L95,64.16 L96.88,64.16 C98.0266724,64.16 98.8399976,63.8733362 99.32,63.3 C99.8000024,62.7266638 100.04,61.8266728 100.04,60.6 L100.04,46.88 C100.04,45.7599944 99.8133356,44.8933364 99.36,44.28 C98.9066644,43.6666636 98.080006,43.36 96.88,43.36 L95,43.36 Z M109.28,68 L109.28,39.52 L113.36,39.52 L113.36,68 L109.28,68 Z M118.28,46.24 C118.28,45.0933276 118.479998,44.0800044 118.88,43.2 C119.28,42.3199956 119.81333,41.5866696 120.48,41 C121.120003,40.4399972 121.846663,40.0133348 122.66,39.72 C123.473337,39.4266652 124.293329,39.28 125.12,39.28 C125.946671,39.28 126.766663,39.4266652 127.58,39.72 C128.393337,40.0133348 129.13333,40.4399972 129.8,41 C130.440003,41.5866696 130.959998,42.3199956 131.36,43.2 C131.760002,44.0800044 131.96,45.0933276 131.96,46.24 L131.96,47.68 L127.88,47.68 L127.88,46.24 C127.88,45.2533284 127.606669,44.526669 127.06,44.06 C126.513331,43.593331 125.86667,43.36 125.12,43.36 C124.37333,43.36 123.726669,43.593331 123.18,44.06 C122.633331,44.526669 122.36,45.2533284 122.36,46.24 L122.36,61.28 C122.36,62.2666716 122.633331,62.993331 123.18,63.46 C123.726669,63.926669 124.37333,64.16 125.12,64.16 C125.86667,64.16 126.513331,63.926669 127.06,63.46 C127.606669,62.993331 127.88,62.2666716 127.88,61.28 L127.88,55.92 L124.64,55.92 L124.64,52.32 L131.96,52.32 L131.96,61.28 C131.96,62.480006 131.760002,63.5066624 131.36,64.36 C130.959998,65.2133376 130.440003,65.9199972 129.8,66.48 C129.13333,67.0666696 128.393337,67.5066652 127.58,67.8 C126.766663,68.0933348 125.946671,68.24 125.12,68.24 C124.293329,68.24 123.473337,68.0933348 122.66,67.8 C121.846663,67.5066652 121.120003,67.0666696 120.48,66.48 C119.81333,65.9199972 119.28,65.2133376 118.88,64.36 C118.479998,63.5066624 118.28,62.480006 118.28,61.28 L118.28,46.24 Z M136.88,68 L136.88,39.52 L140.96,39.52 L140.96,68 L136.88,68 Z M148.8,68 L148.8,43.36 L144.08,43.36 L144.08,39.52 L157.6,39.52 L157.6,43.36 L152.88,43.36 L152.88,68 L148.8,68 Z M166.64,58.04 L164.64,47.72 L164.56,47.72 L162.56,58.04 L166.64,58.04 Z M156.56,68 L162.92,39.52 L166.32,39.52 L172.68,68 L168.6,68 L167.4,61.88 L161.84,61.88 L160.64,68 L156.56,68 Z M175.88,68 L175.88,39.52 L179.96,39.52 L179.96,63.92 L188.04,63.92 L188.04,68 L175.88,68 Z M213.72,47.72 L209.64,47.72 L209.64,46.8 C209.64,45.866662 209.420002,45.0600034 208.98,44.38 C208.539998,43.6999966 207.800005,43.36 206.76,43.36 C206.199997,43.36 205.746668,43.4666656 205.4,43.68 C205.053332,43.8933344 204.773334,44.1599984 204.56,44.48 C204.346666,44.8266684 204.2,45.2199978 204.12,45.66 C204.04,46.1000022 204,46.5599976 204,47.04 C204,47.6000028 204.02,48.0666648 204.06,48.44 C204.1,48.8133352 204.199999,49.1466652 204.36,49.44 C204.520001,49.7333348 204.753332,49.9866656 205.06,50.2 C205.366668,50.4133344 205.786664,50.6266656 206.32,50.84 L209.44,52.08 C210.346671,52.4266684 211.079997,52.833331 211.64,53.3 C212.200003,53.766669 212.639998,54.3066636 212.96,54.92 C213.253335,55.5600032 213.453333,56.2866626 213.56,57.1 C213.666667,57.9133374 213.72,58.8399948 213.72,59.88 C213.72,61.080006 213.600001,62.1933282 213.36,63.22 C213.119999,64.2466718 212.733336,65.1199964 212.2,65.84 C211.639997,66.5866704 210.906671,67.1733312 210,67.6 C209.093329,68.0266688 207.986673,68.24 206.68,68.24 C205.693328,68.24 204.773338,68.0666684 203.92,67.72 C203.066662,67.3733316 202.333336,66.8933364 201.72,66.28 C201.106664,65.6666636 200.620002,64.9533374 200.26,64.14 C199.899998,63.3266626 199.72,62.4400048 199.72,61.48 L199.72,59.96 L203.8,59.96 L203.8,61.24 C203.8,61.9866704 204.019998,62.659997 204.46,63.26 C204.900002,63.860003 205.639995,64.16 206.68,64.16 C207.373337,64.16 207.913331,64.060001 208.3,63.86 C208.686669,63.659999 208.986666,63.3733352 209.2,63 C209.413334,62.6266648 209.54,62.1800026 209.58,61.66 C209.62,61.1399974 209.64,60.5600032 209.64,59.92 C209.64,59.1733296 209.613334,58.5600024 209.56,58.08 C209.506666,57.5999976 209.400001,57.2133348 209.24,56.92 C209.053332,56.6266652 208.806668,56.3866676 208.5,56.2 C208.193332,56.0133324 207.786669,55.8133344 207.28,55.6 L204.36,54.4 C202.599991,53.6799964 201.420003,52.7266726 200.82,51.54 C200.22,50.3533274 199.92,48.8666756 199.92,47.08 C199.92,46.013328 200.066665,45.0000048 200.36,44.04 C200.653335,43.0799952 201.09333,42.2533368 201.68,41.56 C202.240003,40.8666632 202.953329,40.3133354 203.82,39.9 C204.686671,39.4866646 205.72,39.28 206.92,39.28 C207.933338,39.28 208.859996,39.4666648 209.7,39.84 C210.540004,40.2133352 211.266664,40.7066636 211.88,41.32 C213.106673,42.6000064 213.72,44.0666584 213.72,45.72 L213.72,47.72 Z M217.96,68 L217.96,39.52 L230.12,39.52 L230.12,43.36 L222.04,43.36 L222.04,51.72 L229.08,51.72 L229.08,55.56 L222.04,55.56 L222.04,63.92 L230.12,63.92 L230.12,68 L217.96,68 Z M238.04,43.36 L238.04,52.24 L240.36,52.24 C241.080004,52.24 241.653331,52.140001 242.08,51.94 C242.506669,51.739999 242.839999,51.4533352 243.08,51.08 C243.293334,50.7066648 243.44,50.2466694 243.52,49.7 C243.6,49.1533306 243.64,48.5200036 243.64,47.8 C243.64,47.0799964 243.6,46.4466694 243.52,45.9 C243.44,45.3533306 243.280001,44.880002 243.04,44.48 C242.533331,43.7333296 241.57334,43.36 240.16,43.36 L238.04,43.36 Z M233.96,68 L233.96,39.52 L240.52,39.52 C245.320024,39.52 247.72,42.3066388 247.72,47.88 C247.72,49.5600084 247.46,50.9866608 246.94,52.16 C246.419997,53.3333392 245.506673,54.2799964 244.2,55 L248.6,68 L244.28,68 L240.48,55.84 L238.04,55.84 L238.04,68 L233.96,68 Z M266.04,39.52 L260.2,68 L256.6,68 L250.8,39.52 L255.12,39.52 L258.36,59.4 L258.44,59.4 L261.72,39.52 L266.04,39.52 Z M269.8,68 L269.8,39.52 L273.88,39.52 L273.88,68 L269.8,68 Z M292,59.88 L292,61.64 C292,62.5200044 291.833335,63.3533294 291.5,64.14 C291.166665,64.9266706 290.70667,65.6266636 290.12,66.24 C289.53333,66.8533364 288.846671,67.3399982 288.06,67.7 C287.273329,68.0600018 286.426671,68.24 285.52,68.24 C284.746663,68.24 283.960004,68.1333344 283.16,67.92 C282.359996,67.7066656 281.640003,67.333336 281,66.8 C280.359997,66.266664 279.833335,65.5800042 279.42,64.74 C279.006665,63.8999958 278.8,62.8266732 278.8,61.52 L278.8,45.84 C278.8,44.906662 278.959998,44.040004 279.28,43.24 C279.600002,42.439996 280.05333,41.7466696 280.64,41.16 C281.22667,40.5733304 281.926663,40.113335 282.74,39.78 C283.553337,39.446665 284.453328,39.28 285.44,39.28 C287.36001,39.28 288.919994,39.9066604 290.12,41.16 C290.70667,41.7733364 291.166665,42.4999958 291.5,43.34 C291.833335,44.1800042 292,45.0933284 292,46.08 L292,47.68 L287.92,47.68 L287.92,46.32 C287.92,45.519996 287.693336,44.8266696 287.24,44.24 C286.786664,43.6533304 286.173337,43.36 285.4,43.36 C284.386662,43.36 283.713335,43.6733302 283.38,44.3 C283.046665,44.9266698 282.88,45.7199952 282.88,46.68 L282.88,61.24 C282.88,62.0666708 283.059998,62.7599972 283.42,63.32 C283.780002,63.8800028 284.426662,64.16 285.36,64.16 C285.626668,64.16 285.913332,64.1133338 286.22,64.02 C286.526668,63.9266662 286.813332,63.7733344 287.08,63.56 C287.320001,63.3466656 287.519999,63.0533352 287.68,62.68 C287.840001,62.3066648 287.92,61.8400028 287.92,61.28 L287.92,59.88 L292,59.88 Z M296.52,68 L296.52,39.52 L308.68,39.52 L308.68,43.36 L300.6,43.36 L300.6,51.72 L307.64,51.72 L307.64,55.56 L300.6,55.56 L300.6,63.92 L308.68,63.92 L308.68,68 L296.52,68 Z M325.72,47.72 L321.64,47.72 L321.64,46.8 C321.64,45.866662 321.420002,45.0600034 320.98,44.38 C320.539998,43.6999966 319.800005,43.36 318.76,43.36 C318.199997,43.36 317.746668,43.4666656 317.4,43.68 C317.053332,43.8933344 316.773334,44.1599984 316.56,44.48 C316.346666,44.8266684 316.2,45.2199978 316.12,45.66 C316.04,46.1000022 316,46.5599976 316,47.04 C316,47.6000028 316.02,48.0666648 316.06,48.44 C316.1,48.8133352 316.199999,49.1466652 316.36,49.44 C316.520001,49.7333348 316.753332,49.9866656 317.06,50.2 C317.366668,50.4133344 317.786664,50.6266656 318.32,50.84 L321.44,52.08 C322.346671,52.4266684 323.079997,52.833331 323.64,53.3 C324.200003,53.766669 324.639998,54.3066636 324.96,54.92 C325.253335,55.5600032 325.453333,56.2866626 325.56,57.1 C325.666667,57.9133374 325.72,58.8399948 325.72,59.88 C325.72,61.080006 325.600001,62.1933282 325.36,63.22 C325.119999,64.2466718 324.733336,65.1199964 324.2,65.84 C323.639997,66.5866704 322.906671,67.1733312 322,67.6 C321.093329,68.0266688 319.986673,68.24 318.68,68.24 C317.693328,68.24 316.773338,68.0666684 315.92,67.72 C315.066662,67.3733316 314.333336,66.8933364 313.72,66.28 C313.106664,65.6666636 312.620002,64.9533374 312.26,64.14 C311.899998,63.3266626 311.72,62.4400048 311.72,61.48 L311.72,59.96 L315.8,59.96 L315.8,61.24 C315.8,61.9866704 316.019998,62.659997 316.46,63.26 C316.900002,63.860003 317.639995,64.16 318.68,64.16 C319.373337,64.16 319.913331,64.060001 320.3,63.86 C320.686669,63.659999 320.986666,63.3733352 321.2,63 C321.413334,62.6266648 321.54,62.1800026 321.58,61.66 C321.62,61.1399974 321.64,60.5600032 321.64,59.92 C321.64,59.1733296 321.613334,58.5600024 321.56,58.08 C321.506666,57.5999976 321.400001,57.2133348 321.24,56.92 C321.053332,56.6266652 320.806668,56.3866676 320.5,56.2 C320.193332,56.0133324 319.786669,55.8133344 319.28,55.6 L316.36,54.4 C314.599991,53.6799964 313.420003,52.7266726 312.82,51.54 C312.22,50.3533274 311.92,48.8666756 311.92,47.08 C311.92,46.013328 312.066665,45.0000048 312.36,44.04 C312.653335,43.0799952 313.09333,42.2533368 313.68,41.56 C314.240003,40.8666632 314.953329,40.3133354 315.82,39.9 C316.686671,39.4866646 317.72,39.28 318.92,39.28 C319.933338,39.28 320.859996,39.4666648 321.7,39.84 C322.540004,40.2133352 323.266664,40.7066636 323.88,41.32 C325.106673,42.6000064 325.72,44.0666584 325.72,45.72 L325.72,47.72 Z M90.92,108 L90.92,79.52 L95,79.52 L95,91.72 L100.04,91.72 L100.04,79.52 L104.12,79.52 L104.12,108 L100.04,108 L100.04,95.32 L95,95.32 L95,108 L90.92,108 Z M117.4,98.04 L115.4,87.72 L115.32,87.72 L113.32,98.04 L117.4,98.04 Z M107.32,108 L113.68,79.52 L117.08,79.52 L123.44,108 L119.36,108 L118.16,101.88 L112.6,101.88 L111.4,108 L107.32,108 Z M126.48,108 L126.48,79.52 L130.4,79.52 L136.56,96.68 L136.64,96.68 L136.64,79.52 L140.72,79.52 L140.72,108 L136.88,108 L130.64,90.88 L130.56,90.88 L130.56,108 L126.48,108 Z M145.6,108 L145.6,79.52 L151.64,79.52 C153.986678,79.52 155.766661,80.1599936 156.98,81.44 C158.193339,82.7200064 158.8,84.5333216 158.8,86.88 L158.8,100.2 C158.8,102.86668 158.15334,104.833327 156.86,106.1 C155.56666,107.366673 153.706679,108 151.28,108 L145.6,108 Z M149.68,83.36 L149.68,104.16 L151.56,104.16 C152.706672,104.16 153.519998,103.873336 154,103.3 C154.480002,102.726664 154.72,101.826673 154.72,100.6 L154.72,86.88 C154.72,85.7599944 154.493336,84.8933364 154.04,84.28 C153.586664,83.6666636 152.760006,83.36 151.56,83.36 L149.68,83.36 Z M163.84,108 L163.84,79.52 L169.8,79.52 C171.106673,79.52 172.219995,79.719998 173.14,80.12 C174.060005,80.52 174.81333,81.05333 175.4,81.72 C175.98667,82.38667 176.406665,83.153329 176.66,84.02 C176.913335,84.886671 177.04,85.786662 177.04,86.72 L177.04,87.76 C177.04,88.5333372 176.980001,89.186664 176.86,89.72 C176.739999,90.253336 176.560001,90.719998 176.32,91.12 C175.866664,91.8666704 175.173338,92.506664 174.24,93.04 C175.200005,93.4933356 175.906664,94.1599956 176.36,95.04 C176.813336,95.9200044 177.04,97.1199924 177.04,98.64 L177.04,100.24 C177.04,102.746679 176.433339,104.66666 175.22,106 C174.006661,107.33334 172.06668,108 169.4,108 L163.84,108 Z M167.92,94.8 L167.92,103.92 L169.68,103.92 C170.506671,103.92 171.153331,103.8 171.62,103.56 C172.086669,103.319999 172.439999,102.986669 172.68,102.56 C172.92,102.133331 173.066666,101.62667 173.12,101.04 C173.173334,100.45333 173.2,99.8133368 173.2,99.12 C173.2,98.3999964 173.16,97.773336 173.08,97.24 C173,96.706664 172.840001,96.2533352 172.6,95.88 C172.333332,95.5066648 171.973336,95.2333342 171.52,95.06 C171.066664,94.8866658 170.46667,94.8 169.72,94.8 L167.92,94.8 Z M167.92,83.36 L167.92,91.2 L169.76,91.2 C171.120007,91.2 172.033331,90.86 172.5,90.18 C172.966669,89.4999966 173.2,88.5066732 173.2,87.2 C173.2,85.9199936 172.940003,84.9600032 172.42,84.32 C171.899997,83.6799968 170.960007,83.36 169.6,83.36 L167.92,83.36 Z M181.84,86.24 C181.84,85.0933276 182.039998,84.0800044 182.44,83.2 C182.84,82.3199956 183.37333,81.5866696 184.04,81 C184.680003,80.4399972 185.406663,80.0133348 186.22,79.72 C187.033337,79.4266652 187.853329,79.28 188.68,79.28 C189.506671,79.28 190.326663,79.4266652 191.14,79.72 C191.953337,80.0133348 192.69333,80.4399972 193.36,81 C194.000003,81.5866696 194.519998,82.3199956 194.92,83.2 C195.320002,84.0800044 195.52,85.0933276 195.52,86.24 L195.52,101.28 C195.52,102.480006 195.320002,103.506662 194.92,104.36 C194.519998,105.213338 194.000003,105.919997 193.36,106.48 C192.69333,107.06667 191.953337,107.506665 191.14,107.8 C190.326663,108.093335 189.506671,108.24 188.68,108.24 C187.853329,108.24 187.033337,108.093335 186.22,107.8 C185.406663,107.506665 184.680003,107.06667 184.04,106.48 C183.37333,105.919997 182.84,105.213338 182.44,104.36 C182.039998,103.506662 181.84,102.480006 181.84,101.28 L181.84,86.24 Z M185.92,101.28 C185.92,102.266672 186.193331,102.993331 186.74,103.46 C187.286669,103.926669 187.93333,104.16 188.68,104.16 C189.42667,104.16 190.073331,103.926669 190.62,103.46 C191.166669,102.993331 191.44,102.266672 191.44,101.28 L191.44,86.24 C191.44,85.2533284 191.166669,84.526669 190.62,84.06 C190.073331,83.593331 189.42667,83.36 188.68,83.36 C187.93333,83.36 187.286669,83.593331 186.74,84.06 C186.193331,84.526669 185.92,85.2533284 185.92,86.24 L185.92,101.28 Z M200.08,86.24 C200.08,85.0933276 200.279998,84.0800044 200.68,83.2 C201.08,82.3199956 201.61333,81.5866696 202.28,81 C202.920003,80.4399972 203.646663,80.0133348 204.46,79.72 C205.273337,79.4266652 206.093329,79.28 206.92,79.28 C207.746671,79.28 208.566663,79.4266652 209.38,79.72 C210.193337,80.0133348 210.93333,80.4399972 211.6,81 C212.240003,81.5866696 212.759998,82.3199956 213.16,83.2 C213.560002,84.0800044 213.76,85.0933276 213.76,86.24 L213.76,101.28 C213.76,102.480006 213.560002,103.506662 213.16,104.36 C212.759998,105.213338 212.240003,105.919997 211.6,106.48 C210.93333,107.06667 210.193337,107.506665 209.38,107.8 C208.566663,108.093335 207.746671,108.24 206.92,108.24 C206.093329,108.24 205.273337,108.093335 204.46,107.8 C203.646663,107.506665 202.920003,107.06667 202.28,106.48 C201.61333,105.919997 201.08,105.213338 200.68,104.36 C200.279998,103.506662 200.08,102.480006 200.08,101.28 L200.08,86.24 Z M204.16,101.28 C204.16,102.266672 204.433331,102.993331 204.98,103.46 C205.526669,103.926669 206.17333,104.16 206.92,104.16 C207.66667,104.16 208.313331,103.926669 208.86,103.46 C209.406669,102.993331 209.68,102.266672 209.68,101.28 L209.68,86.24 C209.68,85.2533284 209.406669,84.526669 208.86,84.06 C208.313331,83.593331 207.66667,83.36 206.92,83.36 C206.17333,83.36 205.526669,83.593331 204.98,84.06 C204.433331,84.526669 204.16,85.2533284 204.16,86.24 L204.16,101.28 Z M218.56,108 L218.56,79.52 L222.64,79.52 L222.64,92.52 L222.72,92.52 L228.68,79.52 L232.76,79.52 L227.2,90.92 L233.8,108 L229.48,108 L224.84,95.36 L222.64,99.48 L222.64,108 L218.56,108 Z" id="DIGITALSERVICESHANDBOOK" fill-rule="nonzero"></path>
            <path d="M89.84,21.12 C89.84,20.5466638 89.939999,20.0400022 90.14,19.6 C90.34,19.1599978 90.606665,18.7933348 90.94,18.5 C91.2600016,18.2199986 91.6233313,18.0066674 92.03,17.86 C92.4366687,17.7133326 92.8466646,17.64 93.26,17.64 C93.6733354,17.64 94.0833313,17.7133326 94.49,17.86 C94.8966687,18.0066674 95.266665,18.2199986 95.6,18.5 C95.9200016,18.7933348 96.179999,19.1599978 96.38,19.6 C96.580001,20.0400022 96.68,20.5466638 96.68,21.12 L96.68,21.84 L94.64,21.84 L94.64,21.12 C94.64,20.6266642 94.5033347,20.2633345 94.23,20.03 C93.9566653,19.7966655 93.6333352,19.68 93.26,19.68 C92.8866648,19.68 92.5633347,19.7966655 92.29,20.03 C92.0166653,20.2633345 91.88,20.6266642 91.88,21.12 L91.88,28.64 C91.88,29.1333358 92.0166653,29.4966655 92.29,29.73 C92.5633347,29.9633345 92.8866648,30.08 93.26,30.08 C93.6333352,30.08 93.9566653,29.9633345 94.23,29.73 C94.5033347,29.4966655 94.64,29.1333358 94.64,28.64 L94.64,25.96 L93.02,25.96 L93.02,24.16 L96.68,24.16 L96.68,28.64 C96.68,29.240003 96.580001,29.7533312 96.38,30.18 C96.179999,30.6066688 95.9200016,30.9599986 95.6,31.24 C95.266665,31.5333348 94.8966687,31.7533326 94.49,31.9 C94.0833313,32.0466674 93.6733354,32.12 93.26,32.12 C92.8466646,32.12 92.4366687,32.0466674 92.03,31.9 C91.6233313,31.7533326 91.2600016,31.5333348 90.94,31.24 C90.606665,30.9599986 90.34,30.6066688 90.14,30.18 C89.939999,29.7533312 89.84,29.240003 89.84,28.64 L89.84,21.12 Z M101.12,19.68 L101.12,24.12 L102.28,24.12 C102.640002,24.12 102.926666,24.0700005 103.14,23.97 C103.353334,23.8699995 103.519999,23.7266676 103.64,23.54 C103.746667,23.3533324 103.82,23.1233347 103.86,22.85 C103.9,22.5766653 103.92,22.2600018 103.92,21.9 C103.92,21.5399982 103.9,21.2233347 103.86,20.95 C103.82,20.6766653 103.740001,20.440001 103.62,20.24 C103.366665,19.8666648 102.88667,19.68 102.18,19.68 L101.12,19.68 Z M99.08,32 L99.08,17.76 L102.36,17.76 C104.760012,17.76 105.96,19.1533194 105.96,21.94 C105.96,22.7800042 105.830001,23.4933304 105.57,24.08 C105.309999,24.6666696 104.853337,25.1399982 104.2,25.5 L106.4,32 L104.24,32 L102.34,25.92 L101.12,25.92 L101.12,32 L99.08,32 Z M108.2,32 L108.2,17.76 L110.24,17.76 L110.24,23.86 L112.76,23.86 L112.76,17.76 L114.8,17.76 L114.8,32 L112.76,32 L112.76,25.66 L110.24,25.66 L110.24,32 L108.2,32 Z M128.24,21.86 L126.2,21.86 L126.2,21.4 C126.2,20.933331 126.090001,20.5300017 125.87,20.19 C125.649999,19.8499983 125.280003,19.68 124.76,19.68 C124.479999,19.68 124.253334,19.7333328 124.08,19.84 C123.906666,19.9466672 123.766667,20.0799992 123.66,20.24 C123.553333,20.4133342 123.48,20.6099989 123.44,20.83 C123.4,21.0500011 123.38,21.2799988 123.38,21.52 C123.38,21.8000014 123.39,22.0333324 123.41,22.22 C123.43,22.4066676 123.48,22.5733326 123.56,22.72 C123.64,22.8666674 123.756666,22.9933328 123.91,23.1 C124.063334,23.2066672 124.273332,23.3133328 124.54,23.42 L126.1,24.04 C126.553336,24.2133342 126.919999,24.4166655 127.2,24.65 C127.480001,24.8833345 127.699999,25.1533318 127.86,25.46 C128.006667,25.7800016 128.106666,26.1433313 128.16,26.55 C128.213334,26.9566687 128.24,27.4199974 128.24,27.94 C128.24,28.540003 128.180001,29.0966641 128.06,29.61 C127.939999,30.1233359 127.746668,30.5599982 127.48,30.92 C127.199999,31.2933352 126.833336,31.5866656 126.38,31.8 C125.926664,32.0133344 125.373337,32.12 124.72,32.12 C124.226664,32.12 123.766669,32.0333342 123.34,31.86 C122.913331,31.6866658 122.546668,31.4466682 122.24,31.14 C121.933332,30.8333318 121.690001,30.4766687 121.51,30.07 C121.329999,29.6633313 121.24,29.2200024 121.24,28.74 L121.24,27.98 L123.28,27.98 L123.28,28.62 C123.28,28.9933352 123.389999,29.3299985 123.61,29.63 C123.830001,29.9300015 124.199997,30.08 124.72,30.08 C125.066668,30.08 125.336666,30.0300005 125.53,29.93 C125.723334,29.8299995 125.873333,29.6866676 125.98,29.5 C126.086667,29.3133324 126.15,29.0900013 126.17,28.83 C126.19,28.5699987 126.2,28.2800016 126.2,27.96 C126.2,27.5866648 126.186667,27.2800012 126.16,27.04 C126.133333,26.7999988 126.08,26.6066674 126,26.46 C125.906666,26.3133326 125.783334,26.1933338 125.63,26.1 C125.476666,26.0066662 125.273335,25.9066672 125.02,25.8 L123.56,25.2 C122.679996,24.8399982 122.090001,24.3633363 121.79,23.77 C121.489998,23.1766637 121.34,22.4333378 121.34,21.54 C121.34,21.006664 121.413333,20.5000024 121.56,20.02 C121.706667,19.5399976 121.926665,19.1266684 122.22,18.78 C122.500001,18.4333316 122.856664,18.1566677 123.29,17.95 C123.723335,17.7433323 124.24,17.64 124.84,17.64 C125.346669,17.64 125.809998,17.7333324 126.23,17.92 C126.650002,18.1066676 127.013332,18.3533318 127.32,18.66 C127.933336,19.3000032 128.24,20.0333292 128.24,20.86 L128.24,21.86 Z M130.36,32 L130.36,17.76 L132.4,17.76 L132.4,23.86 L134.92,23.86 L134.92,17.76 L136.96,17.76 L136.96,32 L134.92,32 L134.92,25.66 L132.4,25.66 L132.4,32 L130.36,32 Z M145.96,27.94 L145.96,28.82 C145.96,29.2600022 145.876667,29.6766647 145.71,30.07 C145.543332,30.4633353 145.313335,30.8133318 145.02,31.12 C144.726665,31.4266682 144.383335,31.6699991 143.99,31.85 C143.596665,32.0300009 143.173336,32.12 142.72,32.12 C142.333331,32.12 141.940002,32.0666672 141.54,31.96 C141.139998,31.8533328 140.780002,31.666668 140.46,31.4 C140.139998,31.133332 139.876668,30.7900021 139.67,30.37 C139.463332,29.9499979 139.36,29.4133366 139.36,28.76 L139.36,20.92 C139.36,20.453331 139.439999,20.020002 139.6,19.62 C139.760001,19.219998 139.986665,18.8733348 140.28,18.58 C140.573335,18.2866652 140.923331,18.0566675 141.33,17.89 C141.736669,17.7233325 142.186664,17.64 142.68,17.64 C143.640005,17.64 144.419997,17.9533302 145.02,18.58 C145.313335,18.8866682 145.543332,19.2499979 145.71,19.67 C145.876667,20.0900021 145.96,20.5466642 145.96,21.04 L145.96,21.84 L143.92,21.84 L143.92,21.16 C143.92,20.759998 143.806668,20.4133348 143.58,20.12 C143.353332,19.8266652 143.046669,19.68 142.66,19.68 C142.153331,19.68 141.816667,19.8366651 141.65,20.15 C141.483332,20.4633349 141.4,20.8599976 141.4,21.34 L141.4,28.62 C141.4,29.0333354 141.489999,29.3799986 141.67,29.66 C141.850001,29.9400014 142.173331,30.08 142.64,30.08 C142.773334,30.08 142.916666,30.0566669 143.07,30.01 C143.223334,29.9633331 143.366666,29.8866672 143.5,29.78 C143.620001,29.6733328 143.72,29.5266676 143.8,29.34 C143.88,29.1533324 143.92,28.9200014 143.92,28.64 L143.92,27.94 L145.96,27.94 Z" id="GRHSHC" fill-rule="nonzero"></path>
        </g>
    </g>
</svg>